<svg version="1.1" id="Layer_1" xmlns="http://www.w3.org/2000/svg" xmlns:xlink="http://www.w3.org/1999/xlink" x="0px" y="0px"
	 width="100%" viewBox="0 0 1024 1024" enable-background="new 0 0 1024 1024" xml:space="preserve">
<path fill="#000000" opacity="1.000000" stroke="none" 
	d="
M499.000000,1025.000000 
	C332.666656,1025.000000 166.833328,1025.000000 1.000000,1025.000000 
	C1.000000,683.666687 1.000000,342.333344 1.000000,1.000000 
	C342.333344,1.000000 683.666687,1.000000 1025.000000,1.000000 
	C1025.000000,342.333344 1025.000000,683.666687 1025.000000,1025.000000 
	C849.833313,1025.000000 674.666687,1025.000000 499.000000,1025.000000 
M661.184509,679.115173 
	C661.184509,679.115173 661.263611,679.233215 661.816650,679.059082 
	C662.297852,678.480286 662.779053,677.901550 663.241089,677.241272 
	C663.241089,677.241272 663.322327,677.261475 663.866211,677.091675 
	C664.344055,676.527161 664.821899,675.962708 665.330505,675.328735 
	C665.330505,675.328735 665.396790,675.291382 665.988953,675.043396 
	C668.433228,672.509644 670.877502,669.975891 673.374207,667.366394 
	C673.374207,667.366394 673.451111,667.315674 673.961121,667.094116 
	C674.403076,666.507019 674.845032,665.919922 675.356812,665.284058 
	C675.356812,665.284058 675.430725,665.241699 675.981995,664.990967 
	C676.998840,663.675354 678.015747,662.359802 679.001709,661.006653 
	C679.001709,661.006653 679.043518,661.030090 679.624939,660.710938 
	C681.512817,658.257629 683.400635,655.804260 685.293457,653.289062 
	C685.293457,653.289062 685.339661,653.247742 685.909912,652.947693 
	C698.602417,636.172852 709.600159,618.477295 715.807007,597.704895 
	C712.669006,598.052124 708.750305,598.285217 707.568726,600.203979 
	C698.722229,614.569580 690.416443,629.268127 681.331055,644.161682 
	C678.549133,647.790283 675.767273,651.418945 672.408386,655.800110 
	C671.564087,651.187378 669.651184,650.757507 666.416382,651.550659 
	C658.197510,653.565918 649.851074,655.055603 641.600830,656.951904 
	C639.428894,657.451172 637.239075,658.383423 635.367920,659.595947 
	C624.484375,666.648621 613.755859,673.941101 602.854370,680.965454 
	C590.885925,688.677368 576.521912,693.187683 569.408875,707.245850 
	C567.490723,711.036865 564.140686,714.086670 561.600647,717.587524 
	C560.498108,719.107117 559.781921,720.907043 558.617859,723.090576 
	C528.396301,728.987915 497.536957,729.165771 467.420380,722.999390 
	C466.422882,720.869873 465.920807,719.142151 464.922302,717.777588 
	C460.110626,711.201965 455.211456,704.688538 450.235443,698.236267 
	C448.943542,696.561035 447.487488,694.824646 445.726013,693.728271 
	C427.534271,682.405396 409.264374,671.208130 390.622101,659.378906 
	C389.198303,658.609131 387.857117,657.474182 386.336975,657.130310 
	C377.949341,655.233093 369.458069,653.764893 361.129608,651.648682 
	C357.534729,650.735168 354.891327,650.426514 353.608490,655.472046 
	C348.398010,648.858704 343.716553,642.916870 338.880829,636.296509 
	C332.749146,625.275391 326.106842,614.496887 320.705505,603.128723 
	C318.084930,597.613220 314.787933,597.176025 309.473907,597.935486 
	C314.163696,611.501709 320.630432,623.751282 328.136780,635.478943 
	C328.649872,636.280518 330.086365,636.491028 331.008698,637.759399 
	C331.475983,639.280334 331.588776,641.053833 332.464996,642.283386 
	C342.002411,655.666382 352.232574,668.455200 364.994934,679.004761 
	C364.994934,679.004761 364.999115,679.018494 365.266907,679.512817 
	C365.844421,679.968994 366.421936,680.425110 367.161133,681.117310 
	C367.161133,681.117310 367.445068,681.152344 367.776672,681.729309 
	C368.141663,681.972900 368.506622,682.216492 369.169739,682.962585 
	C370.096375,683.656616 371.023010,684.350647 372.259491,685.605042 
	C373.104218,686.260071 373.948944,686.915039 375.170258,688.075562 
	C409.823090,715.885681 449.428314,731.831177 493.539551,735.647705 
	C533.140747,739.073914 571.364807,732.652039 607.457642,715.468079 
	C626.286987,706.503296 643.779968,695.438293 659.608398,680.896973 
	C660.141113,680.349792 660.673828,679.802673 661.184509,679.115173 
M489.118256,603.013489 
	C489.118256,603.013489 489.261536,602.713440 489.058563,602.233826 
	C485.142242,600.537109 481.242279,597.415039 477.306946,597.369751 
	C446.560364,597.016296 415.806946,597.249817 385.055695,597.323730 
	C383.798462,597.326782 382.541779,597.545288 380.560730,597.731445 
	C381.439636,600.322144 382.158813,602.442017 382.843262,605.340454 
	C386.038940,618.892578 389.151550,632.465515 392.534027,645.970825 
	C392.963135,647.684143 394.507843,649.501465 396.038849,650.496521 
	C412.875244,661.439148 429.786224,672.268188 446.768097,682.983643 
	C448.125732,683.840271 450.435608,684.342468 451.835999,683.801208 
	C469.607178,676.933594 487.292786,669.844543 505.760376,662.711365 
	C506.505402,661.244995 507.880280,659.786011 507.897430,658.311218 
	C508.056732,644.606567 508.069031,630.897705 507.847656,617.194580 
	C507.824402,615.755859 506.023132,614.345764 504.715637,612.335999 
	C501.787445,610.565002 498.859253,608.794006 495.571777,606.473145 
	C493.475464,605.223267 491.379150,603.973389 489.118256,603.013489 
M559.980408,303.861694 
	C560.427917,305.224182 560.564209,306.816498 561.373291,307.911865 
	C566.697388,315.120056 572.129150,322.250031 577.622620,329.330383 
	C578.605225,330.596832 579.918640,331.704254 581.282166,332.562927 
	C599.250244,343.877533 617.233643,355.168335 635.279663,366.357941 
	C637.298584,367.609863 639.652832,368.522156 641.974731,369.047363 
	C649.558228,370.762695 657.162292,372.458862 664.837219,373.658508 
	C667.488037,374.072815 670.369568,373.010529 673.145752,372.622772 
	C673.350586,371.438293 673.727112,371.507538 673.914429,371.733582 
	C686.572144,387.008789 697.580444,403.327850 705.383484,421.661743 
	C708.360840,428.657471 709.887329,429.424591 716.935547,427.107117 
	C716.641174,426.187866 716.408508,425.240509 716.041748,424.348236 
	C706.805481,401.879303 694.322632,381.381378 678.119873,363.280609 
	C656.561096,339.196411 631.065247,320.254333 601.139160,307.987427 
	C587.898560,302.560028 573.739990,299.371979 559.200134,295.031647 
	C555.126343,294.310883 551.048767,293.610840 546.979431,292.865814 
	C527.713684,289.338776 508.280426,289.046448 488.939850,291.296570 
	C467.680145,293.769897 446.941986,298.605591 427.047791,307.007477 
	C398.430145,319.093536 373.787781,336.724060 352.228027,358.846863 
	C339.747437,371.653381 329.781860,386.370483 321.191315,401.971191 
	C316.675720,410.171570 312.974945,418.820526 308.766998,427.555969 
	C317.882019,428.809204 317.636871,428.685059 321.064911,421.914978 
	C325.856293,412.452484 330.644318,402.942383 336.207367,393.930145 
	C341.132599,385.951202 347.115326,378.625061 352.631165,371.010742 
	C352.879242,371.568817 353.127289,372.126892 353.375366,372.684998 
	C355.876648,372.936493 358.425903,373.619415 360.868988,373.347717 
	C365.630035,372.818176 370.356781,371.872772 375.050659,370.877625 
	C379.685425,369.894958 384.875671,369.658295 388.757080,367.323608 
	C404.821991,357.660400 420.464264,347.296173 436.306671,337.260284 
	C440.072968,334.874359 445.005341,333.585632 447.678040,330.363007 
	C454.402435,322.254974 460.117096,313.312103 466.320190,304.764679 
	C466.903931,303.960327 468.025421,303.207306 468.988708,303.069397 
	C479.128571,301.617523 489.250610,299.652893 499.448181,299.073944 
	C519.731750,297.922241 539.962769,298.961151 559.980408,303.861694 
M497.385498,497.656586 
	C496.022644,496.737244 493.527344,495.873871 493.478729,494.889587 
	C493.136078,487.957703 493.296875,481.000946 493.296875,473.586853 
	C500.071136,473.586853 506.350037,473.586853 512.628906,473.586853 
	C519.046692,473.586853 525.464417,473.586853 532.312988,473.586853 
	C532.312988,477.622925 532.312988,481.043549 532.312988,484.820648 
	C537.882629,484.820648 543.012085,484.820648 548.141479,484.820648 
	C553.393616,484.820648 558.645752,484.820648 563.796509,484.820648 
	C565.914978,461.615570 565.223938,459.815277 549.027283,445.308289 
	C548.903320,445.197266 548.787354,445.052063 548.639832,444.996429 
	C546.277344,444.105713 543.922852,442.505676 541.542236,442.464233 
	C527.557739,442.220978 513.453613,443.450958 499.609009,442.037567 
	C484.882935,440.534149 474.042603,445.041992 465.254730,456.557800 
	C463.100800,459.380310 461.792694,461.813446 461.797028,465.368896 
	C461.831024,493.179779 462.170685,521.003296 461.415771,548.795654 
	C461.114685,559.878906 462.974640,568.996155 472.314575,575.717224 
	C473.906586,576.862793 474.871094,578.931702 476.514008,579.942566 
	C478.751862,581.319458 481.349243,582.939880 483.816345,582.979797 
	C498.133301,583.211792 512.575684,581.840210 526.746643,583.274048 
	C541.930420,584.810364 553.172668,580.266846 561.444397,567.827393 
	C562.808716,565.775757 564.176514,563.231995 564.230835,560.885376 
	C564.539246,547.569519 564.257446,534.239502 564.593445,520.924866 
	C564.717957,515.989868 563.226501,512.522339 559.320251,509.534363 
	C555.635925,506.716156 552.580872,503.083527 548.949646,500.184082 
	C547.295959,498.863647 544.930054,497.756622 542.871887,497.729858 
	C528.053223,497.537140 513.230652,497.646545 497.385498,497.656586 
M679.778931,487.500122 
	C679.771362,485.333649 679.424744,483.104706 679.810425,481.010651 
	C682.659851,465.538879 676.693665,453.970581 664.124878,445.378601 
	C662.229126,444.082672 659.801575,442.872711 657.597656,442.831818 
	C643.103638,442.562927 628.603455,442.606903 614.105286,442.584625 
	C594.293274,442.554138 594.341370,442.615295 580.239563,456.901703 
	C577.848022,459.324524 576.741394,461.771820 576.746887,465.210541 
	C576.789001,491.373962 576.645691,517.537598 576.595276,543.701233 
	C576.553467,565.380188 576.574646,565.380249 592.428345,580.298279 
	C592.670959,580.526550 592.877686,580.847168 593.166138,580.963928 
	C594.910522,581.669800 596.666565,582.892822 598.431946,582.915527 
	C614.760559,583.125427 631.110474,582.676941 647.415466,583.354492 
	C657.211731,583.761536 665.252686,581.952637 671.068115,573.456787 
	C672.729858,571.029114 675.488708,569.367920 677.257080,566.992432 
	C678.510925,565.308167 679.627869,563.019043 679.642273,560.991638 
	C679.814331,536.828735 679.767944,512.664185 679.778931,487.500122 
M449.801727,560.994995 
	C449.825165,552.498108 449.297607,543.953735 450.023865,535.517334 
	C450.780334,526.730164 449.057922,519.525269 441.500916,514.330505 
	C440.739075,513.806824 440.263458,512.866821 439.773987,512.266052 
	C443.256744,507.728027 447.905151,503.884857 449.453491,499.049072 
	C451.097443,493.914856 449.835144,487.838440 449.777954,482.174133 
	C449.705780,475.023010 451.524567,467.030273 448.909821,460.958618 
	C446.295044,454.886902 439.401367,450.525665 434.004395,445.852264 
	C431.971191,444.091675 428.887543,442.648407 426.261047,442.611633 
	C406.771912,442.338623 387.277191,442.425140 367.784729,442.512207 
	C366.268585,442.518951 364.336060,442.951660 363.313690,443.933014 
	C358.395081,448.654114 353.702637,453.612518 348.982788,458.537415 
	C348.218262,459.335144 347.196411,460.379395 347.180664,461.324493 
	C347.040039,469.751343 347.098755,478.181549 347.098755,486.636658 
	C357.833923,486.636658 367.915222,486.636658 378.673279,486.636658 
	C378.673279,482.123932 378.673279,477.898834 378.673279,473.663696 
	C392.086334,473.663696 404.816925,473.663696 417.600983,473.663696 
	C417.600983,481.740112 417.600983,489.484436 417.600983,497.746582 
	C405.848816,497.746582 394.464417,497.746582 382.864014,497.746582 
	C382.864014,508.375549 382.864014,518.481201 382.864014,529.064453 
	C394.626465,529.064453 406.199677,529.064453 417.851013,529.064453 
	C417.851013,536.962402 417.851013,544.380798 417.851013,552.228088 
	C411.152435,552.228088 404.699890,552.228088 398.247345,552.228088 
	C391.829224,552.228088 385.411102,552.228088 378.600464,552.228088 
	C378.600464,547.651917 378.600464,543.737732 378.600464,539.785339 
	C367.925171,539.785339 357.667633,539.785339 347.687988,539.785339 
	C345.502441,554.912231 345.728485,569.004700 360.235779,578.350220 
	C361.328064,579.053833 361.993439,580.423523 363.089233,581.117310 
	C364.391418,581.941650 365.941620,582.882812 367.389648,582.891541 
	C387.880249,583.014526 408.371765,582.999695 428.862946,582.962769 
	C429.948059,582.960815 431.379517,582.817261 432.062347,582.143982 
	C437.863800,576.423096 443.562500,570.595825 449.183258,564.696899 
	C449.746704,564.105530 449.589508,562.827454 449.801727,560.994995 
M575.523865,341.116241 
	C558.021606,347.810181 540.509766,354.479218 523.025513,361.219971 
	C519.687134,362.507019 517.903931,364.626038 518.001526,368.732452 
	C518.302368,381.387970 517.959534,394.058868 518.268738,406.713959 
	C518.322632,408.920410 519.767578,411.864960 521.530273,413.120636 
	C528.285889,417.933319 535.339172,422.355591 542.488403,426.572571 
	C544.768372,427.917389 547.687317,428.815155 550.319702,428.829132 
	C580.309143,428.988434 610.299805,428.940460 640.290100,428.930664 
	C641.747375,428.930206 643.204651,428.770111 645.202637,428.652527 
	C645.045776,426.533630 645.168762,424.693298 644.742554,422.990448 
	C641.198669,408.831482 637.599915,394.685669 633.877258,380.572968 
	C633.437012,378.904053 632.535400,376.860840 631.198181,375.999420 
	C612.966614,364.254364 594.620544,352.687164 575.523865,341.116241 
M461.007141,344.582001 
	C455.303619,342.741058 449.954712,339.801727 443.693665,344.005585 
	C428.151550,354.441071 412.241882,364.328094 396.639038,374.675507 
	C394.652283,375.993042 392.896332,378.544312 392.258514,380.861237 
	C389.007416,392.671478 386.102509,404.578766 383.202118,416.482697 
	C382.251007,420.386292 381.677399,424.381866 380.814697,428.952332 
	C383.680603,428.952332 385.648071,428.953308 387.615540,428.952209 
	C409.587250,428.939911 431.606232,428.033325 453.516022,429.192017 
	C471.693604,430.153351 487.981232,427.393524 501.946136,415.128998 
	C502.802521,414.376892 504.223083,414.176849 504.903351,413.334229 
	C506.121185,411.825684 507.817596,410.038116 507.847565,408.341278 
	C508.088531,394.696381 508.110718,381.043030 507.844604,367.399170 
	C507.808228,365.534607 506.239594,362.685883 504.656616,362.024078 
	C490.448181,356.083862 476.077698,350.531281 461.007141,344.582001 
M642.097717,612.810547 
	C643.246399,607.878174 644.395081,602.945801 645.703613,597.327148 
	C642.946411,597.327148 641.148926,597.328491 639.351501,597.326965 
	C612.039551,597.303101 584.722778,597.557800 557.418396,597.091919 
	C548.744263,596.943909 541.163330,598.097351 534.318604,603.808960 
	C530.400879,607.078125 525.545410,609.202454 521.450195,612.290588 
	C519.905579,613.455383 518.461487,615.867249 518.424744,617.739136 
	C518.163330,631.057190 518.362549,644.383606 518.211426,657.705017 
	C518.175659,660.854492 519.255066,662.473572 522.203918,663.597778 
	C539.265137,670.101929 556.230896,676.857910 573.327454,683.265930 
	C575.190491,683.964233 578.135498,683.708984 579.814514,682.666016 
	C596.450378,672.331238 612.987000,661.831665 629.368713,651.099304 
	C631.471130,649.721985 633.240112,646.957886 633.950745,644.487305 
	C636.887451,634.277710 639.357483,623.933899 642.097717,612.810547 
z"/>
<path fill="#FAFAFA" opacity="1.000000" stroke="none" 
	d="
M497.897400,497.658356 
	C513.230652,497.646545 528.053223,497.537140 542.871887,497.729858 
	C544.930054,497.756622 547.295959,498.863647 548.949646,500.184082 
	C552.580872,503.083527 555.635925,506.716156 559.320251,509.534363 
	C563.226501,512.522339 564.717957,515.989868 564.593445,520.924866 
	C564.257446,534.239502 564.539246,547.569519 564.230835,560.885376 
	C564.176514,563.231995 562.808716,565.775757 561.444397,567.827393 
	C553.172668,580.266846 541.930420,584.810364 526.746643,583.274048 
	C512.575684,581.840210 498.133301,583.211792 483.816345,582.979797 
	C481.349243,582.939880 478.751862,581.319458 476.514008,579.942566 
	C474.871094,578.931702 473.906586,576.862793 472.314575,575.717224 
	C462.974640,568.996155 461.114685,559.878906 461.415771,548.795654 
	C462.170685,521.003296 461.831024,493.179779 461.797028,465.368896 
	C461.792694,461.813446 463.100800,459.380310 465.254730,456.557800 
	C474.042603,445.041992 484.882935,440.534149 499.609009,442.037567 
	C513.453613,443.450958 527.557739,442.220978 541.542236,442.464233 
	C543.922852,442.505676 546.277344,444.105713 548.639832,444.996429 
	C548.787354,445.052063 548.903320,445.197266 549.027283,445.308289 
	C565.223938,459.815277 565.914978,461.615570 563.796509,484.820648 
	C558.645752,484.820648 553.393616,484.820648 548.141479,484.820648 
	C543.012085,484.820648 537.882629,484.820648 532.312988,484.820648 
	C532.312988,481.043549 532.312988,477.622925 532.312988,473.586853 
	C525.464417,473.586853 519.046692,473.586853 512.628906,473.586853 
	C506.350037,473.586853 500.071136,473.586853 493.296875,473.586853 
	C493.296875,481.000946 493.136078,487.957703 493.478729,494.889587 
	C493.527344,495.873871 496.022644,496.737244 497.897400,497.658356 
M519.491333,528.710388 
	C510.926208,528.710388 502.361084,528.710388 493.834900,528.710388 
	C493.834900,536.897278 493.834900,544.458496 493.834900,551.901428 
	C506.900238,551.901428 519.588196,551.901428 532.557556,551.901428 
	C532.557556,544.078308 532.557556,536.664917 532.557556,528.713013 
	C528.391052,528.713013 524.439392,528.713013 519.491333,528.710388 
z"/>
<path fill="#FBFBFB" opacity="1.000000" stroke="none" 
	d="
M679.778809,488.000122 
	C679.767944,512.664185 679.814331,536.828735 679.642273,560.991638 
	C679.627869,563.019043 678.510925,565.308167 677.257080,566.992432 
	C675.488708,569.367920 672.729858,571.029114 671.068115,573.456787 
	C665.252686,581.952637 657.211731,583.761536 647.415466,583.354492 
	C631.110474,582.676941 614.760559,583.125427 598.431946,582.915527 
	C596.666565,582.892822 594.910522,581.669800 593.166138,580.963928 
	C592.877686,580.847168 592.670959,580.526550 592.428345,580.298279 
	C576.574646,565.380249 576.553467,565.380188 576.595276,543.701233 
	C576.645691,517.537598 576.789001,491.373962 576.746887,465.210541 
	C576.741394,461.771820 577.848022,459.324524 580.239563,456.901703 
	C594.341370,442.615295 594.293274,442.554138 614.105286,442.584625 
	C628.603455,442.606903 643.103638,442.562927 657.597656,442.831818 
	C659.801575,442.872711 662.229126,444.082672 664.124878,445.378601 
	C676.693665,453.970581 682.659851,465.538879 679.810425,481.010651 
	C679.424744,483.104706 679.771362,485.333649 679.778809,488.000122 
M619.535400,473.512604 
	C615.917236,473.512604 612.299072,473.512604 608.407837,473.512604 
	C608.407837,499.979248 608.407837,525.887817 608.407837,551.919800 
	C621.550415,551.919800 634.427429,551.919800 647.293457,551.919800 
	C647.293457,525.663574 647.293457,499.755798 647.293457,473.521545 
	C638.112061,473.521545 629.317688,473.521545 619.535400,473.512604 
z"/>
<path fill="#FAFAFA" opacity="1.000000" stroke="none" 
	d="
M449.784241,561.431519 
	C449.589508,562.827454 449.746704,564.105530 449.183258,564.696899 
	C443.562500,570.595825 437.863800,576.423096 432.062347,582.143982 
	C431.379517,582.817261 429.948059,582.960815 428.862946,582.962769 
	C408.371765,582.999695 387.880249,583.014526 367.389648,582.891541 
	C365.941620,582.882812 364.391418,581.941650 363.089233,581.117310 
	C361.993439,580.423523 361.328064,579.053833 360.235779,578.350220 
	C345.728485,569.004700 345.502441,554.912231 347.687988,539.785339 
	C357.667633,539.785339 367.925171,539.785339 378.600464,539.785339 
	C378.600464,543.737732 378.600464,547.651917 378.600464,552.228088 
	C385.411102,552.228088 391.829224,552.228088 398.247345,552.228088 
	C404.699890,552.228088 411.152435,552.228088 417.851013,552.228088 
	C417.851013,544.380798 417.851013,536.962402 417.851013,529.064453 
	C406.199677,529.064453 394.626465,529.064453 382.864014,529.064453 
	C382.864014,518.481201 382.864014,508.375549 382.864014,497.746582 
	C394.464417,497.746582 405.848816,497.746582 417.600983,497.746582 
	C417.600983,489.484436 417.600983,481.740112 417.600983,473.663696 
	C404.816925,473.663696 392.086334,473.663696 378.673279,473.663696 
	C378.673279,477.898834 378.673279,482.123932 378.673279,486.636658 
	C367.915222,486.636658 357.833923,486.636658 347.098755,486.636658 
	C347.098755,478.181549 347.040039,469.751343 347.180664,461.324493 
	C347.196411,460.379395 348.218262,459.335144 348.982788,458.537415 
	C353.702637,453.612518 358.395081,448.654114 363.313690,443.933014 
	C364.336060,442.951660 366.268585,442.518951 367.784729,442.512207 
	C387.277191,442.425140 406.771912,442.338623 426.261047,442.611633 
	C428.887543,442.648407 431.971191,444.091675 434.004395,445.852264 
	C439.401367,450.525665 446.295044,454.886902 448.909821,460.958618 
	C451.524567,467.030273 449.705780,475.023010 449.777954,482.174133 
	C449.835144,487.838440 451.097443,493.914856 449.453491,499.049072 
	C447.905151,503.884857 443.256744,507.728027 439.773987,512.266052 
	C440.263458,512.866821 440.739075,513.806824 441.500916,514.330505 
	C449.057922,519.525269 450.780334,526.730164 450.023865,535.517334 
	C449.297607,543.953735 449.825165,552.498108 449.784241,561.431519 
z"/>
<path fill="#236F4F" opacity="1.000000" stroke="none" 
	d="
M575.913269,341.096191 
	C594.620544,352.687164 612.966614,364.254364 631.198181,375.999420 
	C632.535400,376.860840 633.437012,378.904053 633.877258,380.572968 
	C637.599915,394.685669 641.198669,408.831482 644.742554,422.990448 
	C645.168762,424.693298 645.045776,426.533630 645.202637,428.652527 
	C643.204651,428.770111 641.747375,428.930206 640.290100,428.930664 
	C610.299805,428.940460 580.309143,428.988434 550.319702,428.829132 
	C547.687317,428.815155 544.768372,427.917389 542.488403,426.572571 
	C535.339172,422.355591 528.285889,417.933319 521.530273,413.120636 
	C519.767578,411.864960 518.322632,408.920410 518.268738,406.713959 
	C517.959534,394.058868 518.302368,381.387970 518.001526,368.732452 
	C517.903931,364.626038 519.687134,362.507019 523.025513,361.219971 
	C540.509766,354.479218 558.021606,347.810181 575.913269,341.096191 
z"/>
<path fill="#236F4F" opacity="1.000000" stroke="none" 
	d="
M461.380981,344.723389 
	C476.077698,350.531281 490.448181,356.083862 504.656616,362.024078 
	C506.239594,362.685883 507.808228,365.534607 507.844604,367.399170 
	C508.110718,381.043030 508.088531,394.696381 507.847565,408.341278 
	C507.817596,410.038116 506.121185,411.825684 504.903351,413.334229 
	C504.223083,414.176849 502.802521,414.376892 501.946136,415.128998 
	C487.981232,427.393524 471.693604,430.153351 453.516022,429.192017 
	C431.606232,428.033325 409.587250,428.939911 387.615540,428.952209 
	C385.648071,428.953308 383.680603,428.952332 380.814697,428.952332 
	C381.677399,424.381866 382.251007,420.386292 383.202118,416.482697 
	C386.102509,404.578766 389.007416,392.671478 392.258514,380.861237 
	C392.896332,378.544312 394.652283,375.993042 396.639038,374.675507 
	C412.241882,364.328094 428.151550,354.441071 443.693665,344.005585 
	C449.954712,339.801727 455.303619,342.741058 461.380981,344.723389 
z"/>
<path fill="#72AD4D" opacity="1.000000" stroke="none" 
	d="
M642.048340,613.224976 
	C639.357483,623.933899 636.887451,634.277710 633.950745,644.487305 
	C633.240112,646.957886 631.471130,649.721985 629.368713,651.099304 
	C612.987000,661.831665 596.450378,672.331238 579.814514,682.666016 
	C578.135498,683.708984 575.190491,683.964233 573.327454,683.265930 
	C556.230896,676.857910 539.265137,670.101929 522.203918,663.597778 
	C519.255066,662.473572 518.175659,660.854492 518.211426,657.705017 
	C518.362549,644.383606 518.163330,631.057190 518.424744,617.739136 
	C518.461487,615.867249 519.905579,613.455383 521.450195,612.290588 
	C525.545410,609.202454 530.400879,607.078125 534.318604,603.808960 
	C541.163330,598.097351 548.744263,596.943909 557.418396,597.091919 
	C584.722778,597.557800 612.039551,597.303101 639.351501,597.326965 
	C641.148926,597.328491 642.946411,597.327148 645.703613,597.327148 
	C644.395081,602.945801 643.246399,607.878174 642.048340,613.224976 
z"/>
<path fill="#72AD4D" opacity="1.000000" stroke="none" 
	d="
M505.000183,662.811829 
	C487.292786,669.844543 469.607178,676.933594 451.835999,683.801208 
	C450.435608,684.342468 448.125732,683.840271 446.768097,682.983643 
	C429.786224,672.268188 412.875244,661.439148 396.038849,650.496521 
	C394.507843,649.501465 392.963135,647.684143 392.534027,645.970825 
	C389.151550,632.465515 386.038940,618.892578 382.888855,604.472900 
	C382.450317,599.825928 384.213257,598.906494 387.824127,598.924927 
	C414.876343,599.063049 441.929688,599.016113 468.982605,598.987427 
	C474.886780,598.981140 480.836182,598.427063 485.906342,602.574768 
	C486.598999,603.141357 488.122650,602.692261 489.261536,602.713440 
	C489.261536,602.713440 489.118256,603.013489 489.140625,603.253906 
	C489.986847,607.417419 493.078430,606.991089 495.931061,607.023010 
	C498.859253,608.794006 501.787445,610.565002 504.933289,613.015320 
	C505.767059,615.826111 506.880280,617.949402 506.915771,620.090515 
	C507.096985,631.015930 507.152252,641.949402 506.908234,652.872314 
	C506.833954,656.198059 505.666779,659.499329 505.000183,662.811829 
z"/>
<path fill="#7EB04D" opacity="1.000000" stroke="none" 
	d="
M391.016235,659.975891 
	C409.264374,671.208130 427.534271,682.405396 445.726013,693.728271 
	C447.487488,694.824646 448.943542,696.561035 450.235443,698.236267 
	C455.211456,704.688538 460.110626,711.201965 464.922302,717.777588 
	C465.920807,719.142151 466.422882,720.869873 467.420380,722.999390 
	C497.536957,729.165771 528.396301,728.987915 558.617859,723.090576 
	C559.781921,720.907043 560.498108,719.107117 561.600647,717.587524 
	C564.140686,714.086670 567.490723,711.036865 569.408875,707.245850 
	C576.521912,693.187683 590.885925,688.677368 602.854370,680.965454 
	C613.755859,673.941101 624.484375,666.648621 635.367920,659.595947 
	C637.239075,658.383423 639.428894,657.451172 641.600830,656.951904 
	C649.851074,655.055603 658.197510,653.565918 666.416382,651.550659 
	C669.651184,650.757507 671.564087,651.187378 672.408386,655.800110 
	C675.767273,651.418945 678.549133,647.790283 681.855103,644.317322 
	C683.366028,647.397888 684.352844,650.322815 685.339661,653.247742 
	C685.339661,653.247742 685.293457,653.289062 684.881836,653.214600 
	C679.332153,653.480408 679.799255,657.675781 679.043518,661.030090 
	C679.043518,661.030090 679.001709,661.006653 678.649902,661.015015 
	C675.354858,661.078491 673.437866,661.831238 675.430725,665.241699 
	C675.430725,665.241699 675.356812,665.284058 674.959106,665.248657 
	C674.191284,665.914062 673.821228,666.614868 673.451172,667.315674 
	C673.451111,667.315674 673.374207,667.366394 672.997742,667.309448 
	C670.213135,669.932129 667.804993,672.611755 665.396790,675.291382 
	C665.396790,675.291382 665.330505,675.328735 664.959717,675.282349 
	C664.166748,675.911072 663.744507,676.586243 663.322327,677.261475 
	C663.322327,677.261475 663.241089,677.241272 662.897644,677.226440 
	C662.124023,677.885437 661.693787,678.559326 661.263550,679.233215 
	C661.263611,679.233215 661.184509,679.115173 660.852783,679.147583 
	C660.031982,679.816833 659.542786,680.453674 659.053650,681.090454 
	C643.779968,695.438293 626.286987,706.503296 607.457642,715.468079 
	C571.364807,732.652039 533.140747,739.073914 493.539551,735.647705 
	C449.428314,731.831177 409.823090,715.885681 375.001892,687.429443 
	C373.872223,686.203735 372.910950,685.624207 371.949646,685.044678 
	C371.023010,684.350647 370.096375,683.656616 368.907104,682.379333 
	C368.244659,681.581482 367.844879,681.366943 367.445068,681.152344 
	C367.445068,681.152344 367.161133,681.117310 367.031158,680.692627 
	C366.267151,679.851501 365.633148,679.434998 364.999146,679.018494 
	C364.999115,679.018494 364.994934,679.004761 365.026886,678.712524 
	C366.172668,678.156006 367.286530,677.891846 368.400391,677.627686 
	C368.865570,681.665039 372.552277,680.453796 374.831421,681.397949 
	C375.792419,681.796082 377.215698,681.078430 378.428802,680.868042 
	C378.052734,679.474609 378.033600,677.793579 377.204712,676.765137 
	C376.294708,675.635925 374.638580,675.108093 372.490082,673.833069 
	C374.113098,673.357666 374.744659,672.944763 375.258881,673.059204 
	C378.406647,673.759888 381.498077,674.743835 384.665405,675.318848 
	C388.575531,676.028687 390.428314,673.629456 389.271820,669.773315 
	C389.083069,669.143921 389.434174,668.352539 389.627167,666.991272 
	C391.360352,668.490662 392.474304,669.734741 393.850006,670.520752 
	C394.491974,670.887573 396.222534,670.644226 396.437714,670.191589 
	C396.876221,669.269043 397.066437,667.335327 396.577576,667.016663 
	C394.194977,665.463318 391.554657,664.305237 389.002747,663.003662 
	C389.000000,663.000000 388.992676,662.994751 389.021545,662.671997 
	C389.705688,661.558105 390.360962,660.767029 391.016235,659.975891 
z"/>
<path fill="#246D4F" opacity="1.000000" stroke="none" 
	d="
M559.939453,303.104065 
	C539.962769,298.961151 519.731750,297.922241 499.448181,299.073944 
	C489.250610,299.652893 479.128571,301.617523 468.988708,303.069397 
	C468.025421,303.207306 466.903931,303.960327 466.320190,304.764679 
	C460.117096,313.312103 454.402435,322.254974 447.678040,330.363007 
	C445.005341,333.585632 440.072968,334.874359 436.306671,337.260284 
	C420.464264,347.296173 404.821991,357.660400 388.757080,367.323608 
	C384.875671,369.658295 379.685425,369.894958 375.050659,370.877625 
	C370.356781,371.872772 365.630035,372.818176 360.868988,373.347717 
	C358.425903,373.619415 355.876648,372.936493 353.375366,372.684998 
	C353.127289,372.126892 352.879242,371.568817 352.631165,371.010742 
	C347.115326,378.625061 341.132599,385.951202 336.207367,393.930145 
	C330.644318,402.942383 325.856293,412.452484 321.064911,421.914978 
	C317.636871,428.685059 317.882019,428.809204 308.766998,427.555969 
	C312.974945,418.820526 316.675720,410.171570 321.191315,401.971191 
	C329.781860,386.370483 339.747437,371.653381 352.228027,358.846863 
	C373.787781,336.724060 398.430145,319.093536 427.047791,307.007477 
	C446.941986,298.605591 467.680145,293.769897 488.939850,291.296570 
	C508.280426,289.046448 527.713684,289.338776 546.979431,292.865814 
	C551.048767,293.610840 555.126343,294.310883 559.559937,295.424561 
	C559.926270,298.246368 559.932861,300.675201 559.939453,303.104065 
z"/>
<path fill="#256E50" opacity="1.000000" stroke="none" 
	d="
M559.959961,303.482880 
	C559.932861,300.675201 559.926270,298.246368 559.958923,295.492432 
	C573.739990,299.371979 587.898560,302.560028 601.139160,307.987427 
	C631.065247,320.254333 656.561096,339.196411 678.119873,363.280609 
	C694.322632,381.381378 706.805481,401.879303 716.041748,424.348236 
	C716.408508,425.240509 716.641174,426.187866 716.935547,427.107117 
	C709.887329,429.424591 708.360840,428.657471 705.383484,421.661743 
	C697.580444,403.327850 686.572144,387.008789 673.914429,371.733582 
	C673.727112,371.507538 673.350586,371.438293 673.145752,372.622772 
	C670.369568,373.010529 667.488037,374.072815 664.837219,373.658508 
	C657.162292,372.458862 649.558228,370.762695 641.974731,369.047363 
	C639.652832,368.522156 637.298584,367.609863 635.279663,366.357941 
	C617.233643,355.168335 599.250244,343.877533 581.282166,332.562927 
	C579.918640,331.704254 578.605225,330.596832 577.622620,329.330383 
	C572.129150,322.250031 566.697388,315.120056 561.373291,307.911865 
	C560.564209,306.816498 560.427917,305.224182 559.959961,303.482880 
z"/>
<path fill="#72AD4D" opacity="1.000000" stroke="none" 
	d="
M389.005493,663.007324 
	C391.554657,664.305237 394.194977,665.463318 396.577576,667.016663 
	C397.066437,667.335327 396.876221,669.269043 396.437714,670.191589 
	C396.222534,670.644226 394.491974,670.887573 393.850006,670.520752 
	C392.474304,669.734741 391.360352,668.490662 389.627167,666.991272 
	C389.434174,668.352539 389.083069,669.143921 389.271820,669.773315 
	C390.428314,673.629456 388.575531,676.028687 384.665405,675.318848 
	C381.498077,674.743835 378.406647,673.759888 375.258881,673.059204 
	C374.744659,672.944763 374.113098,673.357666 372.490082,673.833069 
	C374.638580,675.108093 376.294708,675.635925 377.204712,676.765137 
	C378.033600,677.793579 378.052734,679.474609 378.428802,680.868042 
	C377.215698,681.078430 375.792419,681.796082 374.831421,681.397949 
	C372.552277,680.453796 368.865570,681.665039 368.400391,677.627686 
	C367.286530,677.891846 366.172668,678.156006 365.019562,678.711548 
	C352.232574,668.455200 342.002411,655.666382 332.464996,642.283386 
	C331.588776,641.053833 331.475983,639.280334 331.411011,637.373291 
	C334.220612,636.983093 336.627869,636.979004 339.035095,636.974976 
	C343.716553,642.916870 348.398010,648.858704 353.608490,655.472046 
	C354.891327,650.426514 357.534729,650.735168 361.129608,651.648682 
	C369.458069,653.764893 377.949341,655.233093 386.336975,657.130310 
	C387.857117,657.474182 389.198303,658.609131 390.819183,659.677368 
	C390.360962,660.767029 389.705688,661.558105 388.886047,662.727234 
	C388.816315,663.072632 388.910889,663.039978 389.005493,663.007324 
M386.719360,666.112732 
	C386.528778,665.574463 386.338196,665.036133 386.147644,664.497864 
	C385.871002,664.623901 385.594391,664.749939 385.317780,664.875977 
	C385.640869,665.429932 385.963959,665.983948 386.719360,666.112732 
z"/>
<path fill="#72AD4D" opacity="1.000000" stroke="none" 
	d="
M685.624756,653.097717 
	C684.352844,650.322815 683.366028,647.397888 682.160278,644.167725 
	C690.416443,629.268127 698.722229,614.569580 707.568726,600.203979 
	C708.750305,598.285217 712.669006,598.052124 715.807007,597.704895 
	C709.600159,618.477295 698.602417,636.172852 685.624756,653.097717 
z"/>
<path fill="#72AD4D" opacity="1.000000" stroke="none" 
	d="
M338.957977,636.635742 
	C336.627869,636.979004 334.220612,636.983093 331.453369,636.981812 
	C330.086365,636.491028 328.649872,636.280518 328.136780,635.478943 
	C320.630432,623.751282 314.163696,611.501709 309.473907,597.935486 
	C314.787933,597.176025 318.084930,597.613220 320.705505,603.128723 
	C326.106842,614.496887 332.749146,625.275391 338.957977,636.635742 
z"/>
<path fill="#72AD4D" opacity="1.000000" stroke="none" 
	d="
M489.160034,602.473633 
	C488.122650,602.692261 486.598999,603.141357 485.906342,602.574768 
	C480.836182,598.427063 474.886780,598.981140 468.982605,598.987427 
	C441.929688,599.016113 414.876343,599.063049 387.824127,598.924927 
	C384.213257,598.906494 382.450317,599.825928 382.906219,604.083618 
	C382.158813,602.442017 381.439636,600.322144 380.560730,597.731445 
	C382.541779,597.545288 383.798462,597.326782 385.055695,597.323730 
	C415.806946,597.249817 446.560364,597.016296 477.306946,597.369751 
	C481.242279,597.415039 485.142242,600.537109 489.160034,602.473633 
z"/>
<path fill="#72AD4D" opacity="1.000000" stroke="none" 
	d="
M505.380280,662.761597 
	C505.666779,659.499329 506.833954,656.198059 506.908234,652.872314 
	C507.152252,641.949402 507.096985,631.015930 506.915771,620.090515 
	C506.880280,617.949402 505.767059,615.826111 505.098816,613.308472 
	C506.023132,614.345764 507.824402,615.755859 507.847656,617.194580 
	C508.069031,630.897705 508.056732,644.606567 507.897430,658.311218 
	C507.880280,659.786011 506.505402,661.244995 505.380280,662.761597 
z"/>
<path fill="#72AD4D" opacity="1.000000" stroke="none" 
	d="
M679.334229,660.870483 
	C679.799255,657.675781 679.332153,653.480408 684.879333,653.245605 
	C683.400635,655.804260 681.512817,658.257629 679.334229,660.870483 
z"/>
<path fill="#72AD4D" opacity="1.000000" stroke="none" 
	d="
M665.692871,675.167358 
	C667.804993,672.611755 670.213135,669.932129 672.971558,667.347290 
	C670.877502,669.975891 668.433228,672.509644 665.692871,675.167358 
z"/>
<path fill="#72AD4D" opacity="1.000000" stroke="none" 
	d="
M495.751404,606.748047 
	C493.078430,606.991089 489.986847,607.417419 489.222900,603.108887 
	C491.379150,603.973389 493.475464,605.223267 495.751404,606.748047 
z"/>
<path fill="#72AD4D" opacity="1.000000" stroke="none" 
	d="
M675.706360,665.116333 
	C673.437866,661.831238 675.354858,661.078491 678.665405,661.033752 
	C678.015747,662.359802 676.998840,663.675354 675.706360,665.116333 
z"/>
<path fill="#72AD4D" opacity="1.000000" stroke="none" 
	d="
M372.104553,685.324829 
	C372.910950,685.624207 373.872223,686.203735 374.813599,687.176636 
	C373.948944,686.915039 373.104218,686.260071 372.104553,685.324829 
z"/>
<path fill="#72AD4D" opacity="1.000000" stroke="none" 
	d="
M673.706177,667.204895 
	C673.821228,666.614868 674.191284,665.914062 674.924133,665.273071 
	C674.845032,665.919922 674.403076,666.507019 673.706177,667.204895 
z"/>
<path fill="#72AD4D" opacity="1.000000" stroke="none" 
	d="
M663.594238,677.176575 
	C663.744507,676.586243 664.166748,675.911072 664.944397,675.317078 
	C664.821899,675.962708 664.344055,676.527161 663.594238,677.176575 
z"/>
<path fill="#72AD4D" opacity="1.000000" stroke="none" 
	d="
M661.540100,679.146118 
	C661.693787,678.559326 662.124023,677.885437 662.907227,677.267212 
	C662.779053,677.901550 662.297852,678.480286 661.540100,679.146118 
z"/>
<path fill="#72AD4D" opacity="1.000000" stroke="none" 
	d="
M365.133026,679.265625 
	C365.633148,679.434998 366.267151,679.851501 366.950317,680.574585 
	C366.421936,680.425110 365.844421,679.968994 365.133026,679.265625 
z"/>
<path fill="#72AD4D" opacity="1.000000" stroke="none" 
	d="
M659.331055,680.993713 
	C659.542786,680.453674 660.031982,679.816833 660.863831,679.217773 
	C660.673828,679.802673 660.141113,680.349792 659.331055,680.993713 
z"/>
<path fill="#72AD4D" opacity="1.000000" stroke="none" 
	d="
M367.610870,681.440796 
	C367.844879,681.366943 368.244659,681.581482 368.758026,682.128052 
	C368.506622,682.216492 368.141663,681.972900 367.610870,681.440796 
z"/>
<path fill="#050505" opacity="1.000000" stroke="none" 
	d="
M519.989502,528.711670 
	C524.439392,528.713013 528.391052,528.713013 532.557556,528.713013 
	C532.557556,536.664917 532.557556,544.078308 532.557556,551.901428 
	C519.588196,551.901428 506.900238,551.901428 493.834900,551.901428 
	C493.834900,544.458496 493.834900,536.897278 493.834900,528.710388 
	C502.361084,528.710388 510.926208,528.710388 519.989502,528.711670 
z"/>
<path fill="#050505" opacity="1.000000" stroke="none" 
	d="
M620.029297,473.517090 
	C629.317688,473.521545 638.112061,473.521545 647.293457,473.521545 
	C647.293457,499.755798 647.293457,525.663574 647.293457,551.919800 
	C634.427429,551.919800 621.550415,551.919800 608.407837,551.919800 
	C608.407837,525.887817 608.407837,499.979248 608.407837,473.512604 
	C612.299072,473.512604 615.917236,473.512604 620.029297,473.517090 
z"/>
<path fill="#7EB04D" opacity="1.000000" stroke="none" 
	d="
M386.503204,666.325317 
	C385.963959,665.983948 385.640869,665.429932 385.317780,664.875977 
	C385.594391,664.749939 385.871002,664.623901 386.147644,664.497864 
	C386.338196,665.036133 386.528778,665.574463 386.503204,666.325317 
z"/>
<path fill="#7EB04D" opacity="1.000000" stroke="none" 
	d="
M389.002747,663.003662 
	C388.910889,663.039978 388.816315,663.072632 388.857178,663.050049 
	C388.992676,662.994751 389.000000,663.000000 389.002747,663.003662 
z"/>
</svg>