<svg width="2048" height="1050" viewBox="0 0 2048 1050" fill="none" xmlns="http://www.w3.org/2000/svg">
<path d="M1305.83 225.525C1357.33 225.525 1399.16 183.69 1399.16 132.187C1399.16 80.6845 1357.33 38.8495 1305.83 38.8495C1254.32 38.8495 1212.49 80.6845 1212.49 132.187C1212.49 183.866 1254.32 225.525 1305.83 225.525Z" fill="white"/>
<path d="M345.203 295.309C375.613 317.457 392.663 349.975 383.347 396.381L323.231 717.877C314.442 770.259 263.994 804.711 211.613 794.868C162.219 785.376 125.833 738.971 135.677 683.249L169.777 497.101L148.508 506.769C109.134 524.522 62.7291 506.769 45.1514 467.043C27.5737 427.317 45.1514 380.736 84.5255 362.807L243.252 292.32C280.693 273.512 316.376 275.973 345.203 295.309Z" fill="white"/>
<path d="M405.923 279.838C426.664 304.622 451.021 335.735 439.068 409.561L406.549 583.756L412.525 724.027C413.756 773.948 437.662 796.447 479.848 796.447H585.666C619.24 796.447 632.774 770.784 646.309 738.44L726.991 539.285L735.253 729.476C735.956 771.662 757.401 796.623 796.072 796.623H916.655C950.931 796.623 965.169 775.881 980.286 738.792L1134.27 357.355C1150.97 317.805 1141.3 279.662 1099.64 279.662H1022.12C993.294 279.662 974.134 289.505 962.708 316.927L858.824 572.507L849.332 344.524C847.75 296.009 824.547 279.838 797.654 279.838H719.081C687.968 279.838 669.863 291.966 660.196 315.696L555.784 572.683L546.468 339.074C545.062 295.306 530.648 279.838 495.492 279.838H427.642C426.357 279.838 405.923 279.838 405.923 279.838Z" fill="white"/>
<path d="M1246.41 796.447C1292.99 796.447 1304.42 761.468 1311.1 721.918L1377.02 360.168C1388.97 304.798 1375.43 279.486 1322.52 279.486H1260.12C1209.15 279.486 1191.75 304.446 1184.89 345.227L1116.86 727.894C1110.19 766.389 1124.07 796.447 1163.62 796.447H1246.41Z" fill="white"/>
<path fill-rule="evenodd" clip-rule="evenodd" d="M1985.56 313.235C2012.63 338.371 2032.49 370.539 2041.63 407.628C2049.37 438.916 2049.89 472.665 2044.09 505.008L1997.34 756.546C1993.47 779.221 1988.2 802.775 1975.19 822.638C1957.96 849.005 1930.72 863.067 1896.79 863.067C1896.79 863.067 1835.97 863.418 1815.76 863.067C1801.17 862.715 1787.99 859.551 1775.86 854.454C1750.82 843.948 1723.34 828.558 1718.78 826.007C1709.29 820.734 1700.45 814.728 1693.42 806.466C1681.99 793.107 1669.69 769.553 1672.85 731.761C1672.85 731.585 1672.32 731.41 1672.32 731.761L1667.75 756.897C1663.89 779.045 1658.44 802.248 1645.43 822.111C1627.68 849.005 1600.08 863.242 1565.45 863.242H1477.04C1459.81 863.242 1446.1 859.375 1435.02 854.454C1416.43 846.248 1398.37 836.606 1380.36 827.208C1367.35 844.258 1343.97 863.242 1303.37 863.242C1303.37 863.242 1241.32 863.418 1220.58 863.242C1203.17 863.067 1189.81 859.024 1178.74 854.102C1166.96 849.005 1147.28 839.337 1143.06 837.052C1126.98 828.408 1109.38 820.498 1097.36 806.291C1088.04 795.217 1081.89 781.33 1079.08 765.862C1068.99 790.934 1059.25 817.112 1039.88 836.7C1022.47 854.102 1000.15 863.067 973.433 863.067H852.85C832.987 863.067 817.694 857.969 805.214 852.344C789.218 845.137 760.391 830.548 745.45 822.286C736.134 817.189 731.388 812.794 726.466 807.873C712.052 834.415 687.971 863.067 642.444 863.067H536.626C516.06 863.067 498.659 858.321 483.19 851.29C465.964 843.555 434.676 827.735 427.82 823.693C417.422 817.661 406.82 810.805 399.344 801.193C391.962 812.794 382.645 823.341 371.923 832.306C348.017 852.169 317.608 863.067 286.319 863.067C277.882 863.067 269.445 862.364 261.008 860.782C248.879 858.497 237.805 853.926 226.731 849.356C205.462 840.392 185.951 830.372 169.955 820.88C150.971 809.63 133.217 796.799 120.21 778.518C99.4681 749.163 91.3824 712.777 97.8862 676.216C102.808 648.794 118.101 566.179 118.101 566.179C104.39 560.027 79.4295 549.128 59.7425 537C36.0125 522.41 20.5441 506.063 10.1732 482.509C-2.48275 453.857 -3.36162 422.041 7.71235 392.862C18.7863 363.683 40.5827 340.305 69.0586 327.473C121.768 304.047 174.85 281.436 227.258 257.338C250.109 246.791 272.081 240.815 294.405 240.815H496.022C510.611 240.815 523.267 243.1 534.341 247.143C551.743 253.647 590.063 273.158 602.894 281.42C611.302 286.86 618.473 293.59 624.163 301.81C637.683 261.256 678.407 240.815 719.083 240.815H797.656C811.015 240.815 824.198 244.155 837.03 249.428C855.311 256.986 876.931 267.885 895.036 278.431C910.329 287.396 917.184 293.197 925.622 305.501L927.028 301.81C943.727 261.205 975.718 240.639 1022.12 240.639H1099.11C1127.72 240.639 1154.16 256.228 1178.92 268.939C1193.33 255.053 1211.26 246.44 1233.41 242.749C1197.55 219.194 1173.64 178.414 1173.64 132.185C1173.64 59.4128 1232.88 0 1305.65 0C1326.75 0 1347.14 4.92179 1365.24 12.656C1385.26 21.1127 1403.64 32.036 1422.37 42.8897C1463.68 67.147 1493.91 109.334 1493.91 160.485C1493.91 197.046 1478.79 230.444 1454.71 254.35C1471.23 245.385 1491.62 240.815 1515.18 240.815H1557.32C1580.82 240.815 1603.76 240.793 1625.92 250.131C1645.14 257.902 1663.37 267.653 1681.64 277.377C1719.61 253.823 1761.79 240.815 1800.82 240.815C1837.03 240.815 1862.87 246.967 1888 254.526C1925.62 265.775 1959.19 288.802 1985.56 313.235ZM1399.16 132.187C1399.16 183.69 1357.33 225.525 1305.83 225.525C1254.32 225.525 1212.49 183.866 1212.49 132.187C1212.49 80.6845 1254.32 38.8495 1305.83 38.8495C1357.33 38.8495 1399.16 80.6845 1399.16 132.187ZM345.203 295.309C375.613 317.457 392.663 349.975 383.347 396.381L323.231 717.877C314.442 770.259 263.994 804.711 211.613 794.868C162.219 785.376 125.833 738.971 135.677 683.249L169.777 497.101L148.508 506.769C109.134 524.522 62.7291 506.769 45.1514 467.043C27.5737 427.317 45.1514 380.736 84.5255 362.807L243.252 292.32C280.693 273.512 316.376 275.973 345.203 295.309ZM439.068 409.561C451.021 335.735 426.664 304.622 405.923 279.838C405.923 279.838 426.357 279.838 427.642 279.838H495.492C530.648 279.838 545.062 295.306 546.468 339.074L555.784 572.683L660.196 315.696C669.863 291.966 687.968 279.838 719.081 279.838H797.654C824.547 279.838 847.75 296.009 849.332 344.524L858.824 572.507L962.708 316.927C974.134 289.505 993.294 279.662 1022.12 279.662H1099.64C1141.3 279.662 1150.97 317.805 1134.27 357.355L980.286 738.792C965.169 775.881 950.931 796.623 916.655 796.623H796.072C757.401 796.623 735.956 771.662 735.253 729.476L726.991 539.285L646.309 738.44C632.774 770.784 619.24 796.447 585.666 796.447H479.848C437.662 796.447 413.756 773.948 412.525 724.027L406.549 583.756L439.068 409.561ZM1246.41 796.447C1292.99 796.447 1304.42 761.468 1311.1 721.918L1377.02 360.168C1388.97 304.798 1375.43 279.486 1322.52 279.486H1260.12C1209.15 279.486 1191.75 304.446 1184.89 345.227L1116.86 727.894C1110.19 766.389 1124.07 796.447 1163.62 796.447H1246.41ZM1744.39 528.914L1711.52 726.312C1704.49 770.608 1723.3 796.447 1758.63 796.447H1839.66C1885.72 796.447 1895.74 760.061 1902.24 721.918L1949.17 469.501C1959.72 419.405 1950.93 356.125 1903.82 313.938C1875.52 288.451 1852.14 279.486 1801.17 279.486C1733.85 279.486 1657.21 328.001 1626.09 391.808L1632.25 360.168C1646.48 296.185 1619.41 279.662 1574.24 279.662H1515.88C1459.63 279.662 1447.33 310.247 1440.65 345.227L1371.92 726.312C1366.12 752.151 1369.64 796.447 1420.43 796.447H1501.82C1549.63 796.447 1559.65 758.128 1565.98 722.093L1599.02 539.285C1606.58 497.626 1612.91 477.06 1627.15 461.943C1649.12 436.807 1692.36 425.908 1722.95 450.869C1742.28 467.04 1748.96 492.704 1744.39 528.914Z" fill="black"/>
<path d="M1711.52 726.312L1744.39 528.914C1748.96 492.704 1742.28 467.04 1722.95 450.869C1692.36 425.908 1649.12 436.807 1627.15 461.943C1612.91 477.06 1606.58 497.626 1599.02 539.285L1565.98 722.093C1559.65 758.128 1549.63 796.447 1501.82 796.447H1420.43C1369.64 796.447 1366.12 752.151 1371.92 726.312L1440.65 345.227C1447.33 310.247 1459.63 279.662 1515.88 279.662H1574.24C1619.41 279.662 1646.48 296.185 1632.25 360.168L1626.09 391.808C1657.21 328.001 1733.85 279.486 1801.17 279.486C1852.14 279.486 1875.52 288.451 1903.82 313.938C1950.93 356.125 1959.72 419.405 1949.17 469.501L1902.24 721.918C1895.74 760.061 1885.72 796.447 1839.66 796.447H1758.63C1723.3 796.447 1704.49 770.608 1711.52 726.312Z" fill="white"/>
</svg>
